<svg id="Layer_1" data-name="Layer 1" xmlns="http://www.w3.org/2000/svg" viewBox="0 0 726.317 477.094">
    <defs>
        <style>
            .cls-1 {
                fill: #f14139;
            }
        </style>
    </defs>
    <title>DAVIVIENDA_LOGO</title><path
        class="cls-1"
        d="M759.814,454.583c-.437-.944-.92-1.852-1.427-2.742l-.049-.093-.067-.133-.071-.141c-.025-.05-.05-.1-.076-.15l-.078-.156-.083-.166-.086-.172-.091-.181c-.031-.063-.063-.126-.094-.188s-.065-.132-.1-.2l-.1-.2-.107-.213c-.035-.073-.072-.145-.108-.218s-.076-.152-.113-.228l-.117-.235-.121-.243c-.04-.083-.082-.166-.123-.249s-.086-.171-.128-.257-.088-.176-.131-.265-.091-.182-.136-.273-.093-.186-.139-.279-.1-.191-.142-.287-.1-.2-.146-.3-.1-.2-.15-.3-.1-.206-.154-.31-.1-.209-.156-.315-.107-.215-.16-.324-.11-.22-.164-.33-.113-.226-.169-.34-.114-.228-.17-.343-.118-.235-.176-.354-.119-.237-.177-.358-.123-.245-.183-.368-.125-.247-.185-.372-.127-.253-.189-.381-.13-.257-.192-.387-.132-.261-.2-.394-.135-.266-.2-.4-.137-.271-.2-.408c-.081-.174-.172-.34-.256-.513-.147-.315-.307-.621-.463-.931-.162-.333-.322-.666-.492-.992-.107-.211-.2-.428-.316-.636-.074-.144-.14-.293-.216-.436s-.143-.3-.22-.442-.145-.3-.223-.45-.148-.307-.227-.457-.15-.309-.23-.461-.152-.315-.233-.469-.156-.32-.238-.477-.157-.322-.239-.48-.16-.328-.244-.488-.162-.333-.247-.5-.165-.336-.251-.5-.166-.339-.253-.506-.169-.344-.257-.513-.172-.35-.262-.522-.173-.352-.263-.525-.175-.357-.266-.532-.179-.361-.271-.54-.181-.365-.274-.545-.183-.369-.277-.551-.185-.372-.28-.557-.187-.376-.283-.563-.19-.381-.287-.569-.192-.384-.29-.575-.194-.389-.294-.582-.2-.392-.3-.586-.2-.4-.3-.593-.2-.4-.3-.6-.2-.4-.306-.6-.205-.407-.309-.61-.208-.412-.313-.618-.209-.415-.315-.621-.212-.419-.318-.627-.214-.422-.322-.633-.216-.427-.325-.64-.219-.429-.328-.644-.22-.433-.331-.65-.223-.437-.334-.656-.225-.44-.337-.661-.228-.444-.34-.666-.23-.448-.344-.672-.232-.452-.346-.678-.234-.454-.349-.682-.237-.458-.353-.689c-.176-.367-.368-.723-.555-1.082-.235-.475-.471-.949-.724-1.411-.121-.232-.233-.47-.359-.7s-.236-.474-.362-.705-.238-.477-.365-.71-.24-.48-.368-.715-.242-.484-.371-.72-.244-.486-.374-.724-.246-.491-.377-.731-.249-.493-.38-.735-.251-.5-.383-.741-.253-.5-.386-.744-.255-.5-.389-.752-.256-.5-.391-.753-.259-.51-.395-.761-.261-.512-.4-.765-.262-.515-.4-.768-.266-.52-.4-.776-.267-.521-.406-.778-.27-.525-.409-.784-.272-.527-.412-.788-.274-.531-.415-.794-.275-.533-.417-.8-.278-.536-.42-.8-.28-.54-.424-.808-.282-.542-.426-.811-.283-.545-.429-.815-.285-.548-.431-.82-.288-.552-.435-.826-.289-.553-.436-.828-.292-.557-.441-.834-.293-.559-.442-.837-.295-.563-.445-.843-.3-.565-.448-.846-.3-.568-.451-.85-.3-.571-.453-.855-.3-.573-.456-.859-.305-.576-.459-.863-.307-.578-.461-.867-.309-.581-.464-.871-.312-.584-.467-.876c-.208-.414-.432-.817-.653-1.222-.251-.488-.5-.974-.775-1.448-.157-.294-.308-.593-.472-.883s-.31-.6-.476-.886-.312-.6-.479-.893-.314-.6-.48-.894-.317-.6-.484-.9-.318-.605-.486-.9-.32-.609-.489-.907-.322-.611-.492-.911-.323-.613-.493-.913-.326-.616-.5-.918-.327-.618-.5-.92-.33-.622-.5-.927-.331-.621-.5-.927-.333-.625-.507-.932-.334-.627-.509-.935-.336-.63-.512-.94-.338-.63-.514-.941-.34-.634-.516-.946-.342-.636-.52-.949-.343-.638-.521-.952-.345-.64-.524-.956-.347-.641-.526-.958-.349-.645-.529-.964-.351-.645-.531-.964-.353-.648-.534-.969-.354-.65-.536-.971-.356-.653-.539-.976-.357-.653-.54-.977-.36-.656-.543-.981-.362-.658-.546-.984-.363-.66-.548-.987-.364-.66-.549-.988-.367-.665-.554-1-.368-.665-.554-1-.37-.667-.557-1-.372-.669-.56-1q-.476-.9-1-1.778c-.187-.336-.368-.676-.564-1s-.37-.677-.566-1.007-.371-.678-.567-1.008-.374-.682-.572-1.014-.374-.681-.572-1.014-.376-.683-.574-1.017-.378-.686-.578-1.021-.379-.686-.578-1.021-.382-.689-.583-1.027-.382-.689-.583-1.027-.384-.691-.586-1.029-.386-.694-.588-1.034-.388-.693-.59-1.034-.389-.695-.592-1.037-.392-.7-.6-1.041-.392-.7-.6-1.04-.394-.7-.6-1.044-.395-.7-.6-1.046-.4-.7-.6-1.049-.4-.7-.605-1.051-.4-.7-.607-1.053-.4-.7-.609-1.054-.4-.708-.612-1.057-.4-.709-.614-1.059-.407-.71-.616-1.061-.408-.711-.617-1.062-.41-.713-.62-1.065-.411-.713-.621-1.066-.413-.715-.624-1.069-.415-.716-.626-1.071-.416-.717-.628-1.072-.417-.718-.63-1.074-.418-.719-.631-1.075q-.5-.9-1.039-1.765c-.21-.361-.416-.725-.636-1.077s-.417-.726-.638-1.08-.418-.725-.64-1.079-.42-.728-.642-1.082-.421-.729-.644-1.085-.422-.728-.645-1.084-.424-.73-.648-1.087-.426-.73-.649-1.088-.427-.731-.651-1.088-.429-.733-.655-1.093-.429-.732-.654-1.091-.432-.734-.658-1.094-.432-.734-.658-1.094-.435-.735-.661-1.1-.436-.735-.663-1.1-.437-.736-.664-1.1-.439-.737-.667-1.1-.439-.738-.667-1.1-.442-.738-.67-1.1-.443-.739-.672-1.1-.444-.739-.674-1.1-.445-.74-.675-1.105-.446-.74-.676-1.105-.449-.742-.68-1.109-.449-.74-.68-1.106-.451-.743-.682-1.109-.453-.743-.685-1.111-.453-.742-.685-1.109-.455-.744-.687-1.112-.456-.743-.689-1.111q-.52-.891-1.086-1.749c-.229-.373-.454-.749-.7-1.113s-.454-.748-.694-1.112-.456-.749-.7-1.114-.457-.749-.7-1.114-.459-.749-.7-1.115-.46-.749-.7-1.115-.461-.749-.7-1.115-.463-.75-.706-1.118-.463-.748-.705-1.115-.466-.75-.709-1.117-.466-.75-.71-1.118-.467-.749-.711-1.117-.469-.751-.713-1.119-.47-.75-.715-1.118-.471-.75-.716-1.119-.473-.75-.717-1.118-.474-.75-.719-1.119-.476-.75-.722-1.12-.476-.75-.722-1.119-.477-.75-.723-1.119-.48-.75-.726-1.121-.48-.748-.726-1.117-.482-.751-.729-1.121-.482-.749-.729-1.119-.484-.749-.731-1.119-.485-.749-.733-1.12-.486-.748-.733-1.118q-.549-.882-1.139-1.731c-.243-.374-.483-.751-.738-1.117s-.485-.752-.74-1.118-.486-.752-.742-1.118-.487-.751-.743-1.118-.487-.749-.743-1.115-.49-.751-.746-1.118-.491-.75-.747-1.116-.492-.75-.749-1.116-.492-.749-.749-1.115-.494-.749-.751-1.115-.5-.748-.753-1.115-.5-.747-.753-1.114-.5-.746-.755-1.113-.5-.747-.757-1.114-.5-.745-.757-1.111-.5-.746-.76-1.113-.5-.743-.759-1.109-.5-.745-.762-1.111-.5-.743-.762-1.109-.506-.742-.765-1.109-.506-.741-.765-1.107-.507-.741-.766-1.107-.508-.74-.767-1.1-.51-.741-.77-1.107-.51-.738-.77-1.1q-.576-.87-1.2-1.706c-.255-.37-.508-.741-.775-1.1s-.509-.74-.776-1.1-.51-.74-.777-1.1-.511-.739-.778-1.1-.512-.738-.78-1.1-.513-.736-.78-1.1-.515-.736-.782-1.1-.516-.734-.783-1.094-.516-.733-.784-1.092-.517-.732-.785-1.091-.518-.732-.787-1.091-.519-.73-.786-1.088-.521-.73-.79-1.089-.521-.727-.789-1.085-.522-.727-.79-1.085-.523-.725-.792-1.082-.524-.725-.792-1.082-.526-.723-.794-1.08-.526-.722-.795-1.078-.527-.721-.8-1.078-.528-.719-.8-1.074q-.6-.845-1.232-1.656c-.27-.368-.538-.738-.82-1.1-.264-.36-.527-.72-.8-1.07s-.528-.719-.8-1.069-.529-.717-.8-1.066-.531-.716-.807-1.066-.53-.714-.806-1.062-.531-.713-.807-1.061-.533-.712-.809-1.06-.533-.709-.809-1.057-.534-.708-.81-1.055-.535-.707-.811-1.053-.537-.706-.813-1.052-.536-.7-.812-1.049-.538-.7-.813-1.046-.539-.7-.816-1.046-.539-.7-.815-1.043-.54-.7-.816-1.04-.542-.695-.818-1.039-.542-.693-.817-1.035-.543-.692-.819-1.034q-.636-.841-1.313-1.648c-.271-.346-.541-.693-.824-1.03s-.542-.691-.824-1.027-.543-.689-.826-1.025-.544-.687-.826-1.022-.545-.685-.827-1.019-.546-.684-.828-1.018-.546-.681-.829-1.015-.547-.679-.829-1.012-.548-.677-.83-1.009-.548-.675-.83-1.006-.55-.674-.832-1-.551-.671-.832-1-.552-.669-.833-1-.552-.667-.834-1-.552-.664-.833-.992-.555-.664-.836-.992-.554-.66-.835-.987q-.667-.825-1.374-1.614c-.278-.33-.553-.662-.841-.983s-.554-.659-.842-.979-.554-.656-.841-.976-.556-.654-.843-.973-.556-.652-.843-.97-.557-.65-.845-.968-.557-.647-.844-.964-.558-.645-.845-.961-.56-.643-.846-.958-.56-.64-.846-.954-.561-.639-.848-.953-.56-.634-.846-.946-.563-.634-.849-.947-.563-.63-.848-.941-.563-.627-.848-.937q-.664-.767-1.364-1.5c-.306-.34-.61-.682-.927-1.012-.282-.311-.563-.625-.855-.928s-.564-.623-.855-.925-.565-.62-.856-.921-.566-.618-.857-.919-.566-.614-.856-.914-.567-.612-.858-.911-.567-.609-.857-.907-.568-.606-.859-.9-.569-.6-.859-.9-.569-.6-.859-.9-.57-.6-.859-.892-.571-.595-.86-.889-.571-.592-.86-.885q-.732-.784-1.5-1.533c-.287-.294-.571-.592-.867-.878s-.57-.588-.865-.873-.573-.586-.867-.87-.573-.583-.868-.866-.572-.579-.866-.861-.575-.577-.869-.859-.574-.573-.867-.853-.575-.57-.869-.849-.576-.567-.868-.846-.577-.564-.869-.841-.578-.561-.87-.838-.578-.557-.869-.833q-.765-.762-1.565-1.487c-.29-.276-.577-.556-.875-.825s-.578-.553-.876-.82-.578-.55-.876-.816-.578-.546-.875-.811-.58-.544-.877-.808-.581-.54-.877-.8-.581-.536-.876-.8-.582-.533-.878-.795-.581-.528-.876-.789-.584-.526-.878-.785-.583-.522-.877-.78q-.8-.738-1.63-1.436c-.293-.259-.583-.521-.883-.771s-.584-.517-.884-.767-.584-.513-.883-.761-.585-.51-.885-.757-.585-.506-.883-.752-.587-.5-.885-.748-.587-.5-.885-.743-.586-.494-.883-.737-.589-.491-.886-.734-.588-.486-.884-.727q-.829-.711-1.695-1.381c-.3-.24-.588-.484-.89-.717s-.588-.481-.89-.712-.59-.477-.891-.708-.59-.473-.891-.7-.591-.469-.891-.7-.591-.464-.891-.692-.592-.461-.891-.687-.592-.457-.891-.682-.592-.453-.89-.677q-.864-.681-1.76-1.321c-.3-.223-.592-.449-.9-.665s-.594-.446-.9-.66-.594-.442-.9-.655-.6-.437-.9-.649-.6-.433-.9-.645-.595-.428-.9-.638-.6-.424-.9-.633-.6-.421-.9-.629q-.894-.649-1.819-1.257c-.3-.206-.6-.416-.9-.615s-.6-.413-.9-.611-.6-.407-.9-.6-.6-.4-.9-.6-.6-.4-.9-.593-.6-.394-.9-.587-.6-.389-.9-.581-.6-.385-.9-.577q-.927-.615-1.885-1.185c-.3-.189-.6-.381-.908-.562s-.6-.376-.908-.557-.6-.371-.908-.551-.6-.366-.907-.544-.6-.362-.908-.539-.6-.356-.906-.532c-.514-.314-1.038-.612-1.565-.9-.427-.249-.853-.5-1.29-.735-.3-.172-.6-.347-.912-.512s-.6-.342-.911-.506-.606-.337-.913-.5-.606-.332-.912-.494-.607-.327-.913-.488-.606-.322-.91-.481q-.987-.544-2-1.039c-.305-.157-.608-.316-.917-.466s-.609-.311-.917-.46-.608-.306-.916-.453-.609-.3-.917-.448-.61-.3-.916-.44c-.327-.164-.661-.315-.992-.47q-.978-.484-1.984-.921c-.306-.141-.612-.284-.922-.419s-.611-.278-.92-.411-.612-.273-.92-.4-.613-.268-.921-.4-.613-.262-.92-.391q-1.043-.465-2.114-.878c-.308-.126-.613-.255-.924-.374s-.614-.249-.924-.367-.614-.244-.924-.361-.615-.239-.925-.354-.614-.233-.922-.347q-1.071-.423-2.167-.792c-.309-.11-.616-.225-.928-.329s-.616-.218-.926-.321-.617-.214-.927-.315-.618-.208-.928-.309-.617-.2-.927-.3q-1.1-.377-2.217-.7c-.31-.095-.618-.193-.93-.281s-.619-.188-.931-.276-.618-.181-.929-.267-.62-.175-.931-.261q-1.119-.332-2.263-.608c-.311-.081-.62-.167-.934-.241s-.619-.16-.932-.233-.62-.154-.931-.226-.621-.148-.933-.219-.621-.141-.932-.211c-.763-.188-1.535-.352-2.312-.5-.311-.065-.621-.132-.934-.19s-.622-.126-.935-.184-.622-.119-.934-.176-.622-.112-.932-.167c-.778-.154-1.564-.285-2.356-.4-.312-.051-.623-.1-.937-.147s-.623-.1-.936-.139-.623-.089-.936-.131-.623-.083-.935-.124c-.792-.118-1.591-.213-2.4-.29-.312-.035-.623-.072-.937-.1s-.624-.066-.937-.094-.624-.059-.936-.086c-1.029-.107-2.07-.171-3.117-.208-.8-.042-1.6-.066-2.4-.067l-.083,0c-.233,0-.463-.018-.7-.019-.09,0-.18.007-.27.007-.171,0-.339-.014-.51-.014-.154,0-.305.009-.458.01-.108,0-.215-.009-.323-.009-.217,0-.43.012-.646.014-.046,0-.091,0-.137,0q-1.177,0-2.341.052c-.323.009-.646.014-.966.03s-.646.022-.968.039-.646.029-.968.047-.645.037-.968.056c-.819.035-1.632.094-2.44.171-.323.026-.647.049-.968.081s-.646.056-.967.089-.644.063-.966.1q-1.212.106-2.406.274c-.322.04-.644.075-.964.121s-.644.082-.965.13-.645.089-.966.137-.644.1-.965.146q-1.193.162-2.364.386c-.322.055-.644.107-.964.169s-.643.114-.962.177-.644.121-.965.185-.643.128-.964.193q-1.172.215-2.32.491c-.321.071-.643.139-.961.216s-.642.145-.961.223-.642.152-.962.231-.641.158-.961.239q-1.151.266-2.276.591c-.32.085-.64.168-.957.26s-.641.175-.959.269-.64.181-.959.275-.639.188-.958.283q-1.126.313-2.227.684c-.32.1-.641.2-.957.3s-.638.2-.954.311-.638.209-.955.318-.639.216-.957.327c-.6.2-1.2.411-1.793.633-.448.157-.9.313-1.338.484-.318.115-.636.23-.95.353s-.637.236-.952.36-.636.243-.952.368-.635.249-.952.375q-1.075.4-2.125.862c-.317.131-.636.257-.949.4s-.634.262-.947.4-.633.268-.947.408-.633.274-.948.415-.632.28-.948.422q-1.048.448-2.072.946c-.315.145-.632.287-.942.44s-.631.292-.943.447-.631.3-.943.453-.631.3-.944.461-.629.309-.942.467-.63.315-.944.475q-1.021.49-2.013,1.032c-.313.162-.628.321-.937.49s-.628.328-.939.5-.627.333-.938.505-.627.337-.938.51-.626.343-.938.517-.626.348-.938.524c-.662.353-1.312.725-1.953,1.11-.313.178-.626.354-.933.54s-.625.359-.933.545-.624.365-.933.553-.624.369-.933.559-.623.374-.932.564-.623.38-.933.571q-.963.567-1.895,1.179c-.311.194-.623.385-.928.587s-.621.389-.927.592-.621.394-.927.6-.62.4-.927.6-.62.4-.927.611-.62.409-.928.616-.619.414-.927.623q-.933.6-1.832,1.247c-.309.211-.619.419-.922.637s-.618.423-.921.642-.617.427-.921.648-.617.431-.921.653-.617.437-.922.66-.615.441-.92.665-.615.445-.92.671c-.494.346-.978.707-1.457,1.073-.414.3-.829.6-1.232.92-.307.227-.615.453-.915.689s-.613.457-.914.694-.614.463-.915.7-.613.467-.915.706-.612.471-.914.712-.611.474-.914.716-.611.48-.915.723-.61.483-.913.727q-.87.665-1.706,1.374c-.3.245-.611.487-.908.739s-.61.491-.908.745-.608.494-.906.749-.609.5-.908.755-.608.5-.907.76-.608.508-.908.766-.606.51-.906.77-.607.515-.907.776-.606.518-.906.78q-.84.695-1.643,1.43c-.3.262-.606.52-.9.79s-.605.525-.9.8-.605.529-.9.8-.6.533-.9.806-.6.536-.9.811-.6.539-.9.815-.6.543-.9.821-.6.547-.9.825-.6.551-.9.829-.6.555-.9.836q-.807.72-1.578,1.479c-.3.28-.6.556-.892.844s-.6.56-.891.849-.6.563-.891.852-.6.567-.891.858-.6.57-.891.862-.6.574-.891.867-.6.577-.889.871-.6.58-.89.876-.6.583-.889.88-.6.586-.889.884-.594.589-.888.887-.594.594-.889.894q-.774.746-1.509,1.53c-.3.3-.595.594-.882.9s-.594.6-.882.906-.593.6-.881.909-.593.6-.881.913-.592.607-.88.918-.591.609-.88.921-.591.613-.879.926-.59.615-.879.928-.59.62-.879.935-.588.621-.878.936-.588.625-.878.942-.587.627-.876.945-.586.629-.876.948q-.742.768-1.444,1.575c-.293.316-.588.631-.872.956s-.586.633-.869.959-.586.636-.869.963-.586.639-.87.968-.584.641-.868.97-.584.644-.867.973-.584.647-.868.978-.582.65-.866.981-.582.652-.866.984-.582.655-.866.989-.58.657-.865.991-.579.66-.864.994-.579.663-.864,1-.577.664-.861,1q-.711.789-1.383,1.614c-.288.333-.579.665-.857,1.007s-.578.667-.856,1.01-.578.67-.856,1.014-.577.672-.855,1.017-.576.674-.854,1.019-.575.677-.854,1.023-.575.679-.853,1.027-.574.681-.852,1.028-.573.684-.852,1.032-.572.686-.851,1.035-.57.687-.849,1.037-.571.69-.85,1.041-.569.692-.848,1.043-.569.694-.848,1.047-.567.695-.846,1.048-.568.7-.847,1.052q-.679.807-1.319,1.648c-.283.35-.569.7-.841,1.058s-.567.7-.839,1.058-.566.7-.838,1.061-.567.7-.839,1.065-.565.705-.837,1.067-.564.707-.836,1.069-.563.708-.835,1.071-.563.711-.835,1.075-.561.712-.833,1.075-.561.715-.833,1.079-.56.717-.832,1.082-.559.718-.831,1.084-.557.718-.828,1.083-.558.723-.83,1.09-.556.722-.828,1.089-.556.725-.827,1.093-.554.726-.826,1.093-.553.728-.824,1.1-.553.73-.825,1.1q-.648.823-1.255,1.682c-.276.364-.554.728-.819,1.1s-.552.728-.816,1.1-.553.732-.818,1.107-.551.732-.815,1.108-.55.734-.815,1.11-.549.734-.813,1.111-.549.736-.813,1.113-.547.738-.811,1.115-.546.738-.809,1.115-.546.741-.81,1.119-.544.742-.808,1.119-.544.744-.807,1.123-.542.743-.805,1.122-.542.745-.805,1.124-.541.747-.8,1.126-.539.748-.8,1.127-.539.75-.8,1.13-.537.749-.8,1.129-.537.751-.8,1.131-.536.753-.8,1.133q-.619.838-1.2,1.709c-.267.376-.537.75-.792,1.136s-.536.75-.791,1.135-.535.752-.789,1.138-.535.753-.789,1.139-.533.754-.788,1.14-.531.755-.786,1.141-.53.756-.785,1.142-.529.757-.783,1.143-.529.757-.782,1.144-.528.758-.781,1.145-.527.759-.78,1.146-.526.76-.779,1.147-.524.76-.776,1.147-.524.761-.776,1.149-.522.761-.775,1.149-.52.762-.773,1.15-.519.762-.771,1.149-.518.764-.77,1.152-.518.764-.769,1.152-.516.765-.768,1.152-.514.765-.765,1.152-.514.766-.765,1.154-.512.766-.763,1.153c-.332.478-.65.966-.962,1.459-.321.471-.637.944-.939,1.43-.256.382-.513.763-.756,1.155s-.513.764-.756,1.156-.51.764-.753,1.156-.51.764-.752,1.156-.509.765-.751,1.157-.507.765-.749,1.157-.507.766-.748,1.158-.5.765-.746,1.156-.5.766-.745,1.158-.5.766-.743,1.158-.5.766-.742,1.157-.5.766-.739,1.157-.5.766-.739,1.157-.5.768-.737,1.158-.5.767-.735,1.157-.494.767-.733,1.157-.494.767-.732,1.156-.492.767-.731,1.157-.49.767-.728,1.156-.49.767-.728,1.156-.487.767-.725,1.156-.487.767-.724,1.156-.485.767-.722,1.155-.483.766-.719,1.153-.483.767-.72,1.155c-.348.529-.681,1.07-1,1.618-.272.426-.543.852-.8,1.29-.24.382-.483.762-.711,1.153s-.483.762-.711,1.153-.481.762-.709,1.153-.479.761-.706,1.151-.478.761-.7,1.151-.477.761-.7,1.15-.475.761-.7,1.149-.474.761-.7,1.15-.473.76-.7,1.148-.471.758-.7,1.146-.47.759-.7,1.146-.468.759-.692,1.145-.467.758-.691,1.144-.465.758-.689,1.144-.464.757-.687,1.142-.462.756-.685,1.14-.46.756-.683,1.14-.459.755-.681,1.139-.458.755-.68,1.138-.456.753-.676,1.134-.456.754-.677,1.136-.453.753-.673,1.134-.452.752-.672,1.133-.45.75-.669,1.13-.449.75-.668,1.129-.447.749-.666,1.128-.445.749-.663,1.127-.444.748-.662,1.125q-.541.87-1.039,1.771c-.222.372-.447.742-.657,1.123s-.446.742-.655,1.123-.444.74-.653,1.12-.442.74-.651,1.119-.441.739-.649,1.117-.439.738-.647,1.115-.437.737-.645,1.114-.436.735-.642,1.111-.435.735-.641,1.11-.433.734-.639,1.108-.431.733-.636,1.107-.43.731-.635,1.1-.427.729-.632,1.1-.426.729-.629,1.1-.425.728-.629,1.1-.423.726-.626,1.1-.421.725-.623,1.094-.419.723-.621,1.09-.418.724-.62,1.091-.416.72-.616,1.086-.415.72-.615,1.085-.413.718-.613,1.082-.411.718-.61,1.081-.409.715-.608,1.077-.408.715-.606,1.076-.405.712-.6,1.072-.4.712-.6,1.071-.4.709-.6,1.067-.4.709-.6,1.066-.4.706-.594,1.062-.4.705-.592,1.06-.395.7-.59,1.058q-.519.876-.993,1.786c-.2.349-.4.7-.585,1.053s-.4.7-.584,1.053-.394.693-.579,1.048-.394.692-.579,1.047-.392.69-.576,1.043-.389.688-.573,1.04-.388.687-.571,1.038-.386.684-.568,1.034-.385.683-.567,1.032-.382.681-.564,1.028-.38.679-.561,1.025-.378.677-.558,1.022-.377.675-.557,1.02-.375.673-.554,1.015-.373.671-.551,1.012-.372.67-.55,1.011-.368.666-.546,1-.367.665-.544,1-.365.663-.541,1-.363.66-.539.994-.361.66-.536.994-.36.657-.534.989-.357.654-.531.984-.356.653-.529.983-.353.649-.525.977-.352.649-.524.976-.35.645-.521.971-.347.643-.518.966-.345.642-.515.964-.344.639-.513.961-.342.636-.51.955-.34.634-.508.953-.337.631-.5.947-.336.63-.5.946-.334.626-.5.94q-.478.849-.915,1.728c-.179.334-.363.665-.533,1.006-.164.31-.335.616-.492.932s-.334.614-.49.928-.332.611-.487.924-.33.609-.484.92-.328.6-.482.915-.326.6-.479.912-.323.6-.476.907-.322.6-.474.9-.319.594-.47.9-.317.593-.467.894-.316.591-.466.892-.313.586-.462.884-.311.584-.459.881-.309.582-.457.877-.306.578-.453.871-.3.576-.451.868-.3.573-.448.863-.3.569-.444.857-.3.568-.443.855-.3.563-.439.848-.294.561-.436.844-.292.558-.433.84-.289.553-.43.833-.288.552-.428.831-.285.548-.424.824-.283.545-.422.819-.28.543-.418.815-.278.539-.415.809-.277.537-.413.806-.274.532-.409.8-.272.53-.407.8-.269.525-.4.788-.267.522-.4.784-.265.519-.4.779-.263.516-.395.774-.26.513-.391.769-.257.509-.387.763c-.173.318-.33.647-.494.972-.28.524-.553,1.053-.809,1.594-.126.251-.26.5-.38.751s-.258.493-.378.746-.256.491-.375.742-.253.486-.372.735-.25.482-.368.729-.249.48-.366.725-.246.476-.362.719-.244.472-.359.713-.241.468-.356.707-.239.465-.353.7-.236.46-.348.694-.235.458-.347.692-.232.453-.343.683-.23.45-.34.679-.227.446-.336.672-.225.442-.333.667-.223.437-.33.659-.221.435-.327.656-.218.43-.323.647-.216.427-.32.642-.213.423-.317.637-.211.418-.313.629-.209.416-.311.625-.2.41-.306.617-.2.407-.3.611-.2.4-.3.605-.2.4-.3.6-.2.394-.293.591-.193.391-.29.587-.19.385-.286.578-.188.382-.282.573-.187.378-.281.568-.183.373-.275.559-.182.369-.273.553-.179.365-.269.547-.176.361-.266.54-.173.356-.262.533-.171.352-.259.527-.168.348-.255.52-.166.343-.251.513-.164.338-.248.5-.161.334-.244.5c-.142.269-.269.55-.4.825-.2.385-.389.775-.573,1.17-.13.266-.267.526-.391.8-.076.16-.16.316-.234.478s-.157.311-.23.47-.155.307-.228.464-.152.3-.223.456-.149.3-.219.449-.148.293-.217.443-.144.287-.212.434-.142.283-.209.427-.139.279-.2.421-.137.273-.2.413-.133.268-.2.4-.132.265-.2.4-.128.258-.19.39-.127.255-.187.384-.123.249-.183.375-.121.245-.18.37-.118.238-.175.358-.116.235-.172.354-.113.23-.168.346-.111.225-.165.338-.107.219-.16.33l-.157.321-.153.315c-.05.1-.1.2-.149.307s-.1.2-.146.3l-.141.29-.138.283-.134.276-.129.265c-.043.087-.085.174-.127.261s-.081.167-.122.25-.079.162-.118.243-.076.157-.115.235-.073.151-.11.226l-.107.219-.1.21c-.034.067-.066.135-.1.2s-.063.129-.095.194l-.09.184c-.029.059-.057.118-.087.177s-.055.113-.083.169l-.078.159c-.026.05-.05.1-.075.152s-.047.1-.071.143-.044.09-.067.135-.041.083-.061.125-.039.078-.059.117l-.017.031c-.457.816-.895,1.647-1.294,2.508-9.2,19.911,1.222,44.307,23.269,54.489s47.374,2.3,56.57-17.614c.406-.878.76-1.768,1.09-2.662.018-.04.032-.081.05-.122s.029-.06.042-.09.033-.084.051-.125.033-.068.048-.1.031-.081.048-.12.037-.077.054-.116.03-.077.047-.115.041-.084.06-.128.028-.074.044-.11.045-.093.066-.141.027-.071.042-.105c.023-.053.049-.1.072-.155.014-.032.025-.066.039-.1.025-.057.054-.112.078-.169.014-.031.024-.062.038-.093.027-.062.057-.12.084-.182.012-.028.022-.057.034-.086.029-.067.063-.13.091-.2.012-.026.021-.053.032-.08.031-.071.067-.139.1-.211.011-.024.019-.049.029-.073.033-.076.071-.149.1-.226.009-.021.016-.043.025-.064.036-.082.077-.16.112-.242.008-.019.014-.038.022-.057.038-.087.081-.17.118-.258.007-.016.012-.032.019-.048.04-.093.085-.181.125-.274l.015-.04c.025-.056.053-.111.077-.168.055-.113.1-.231.156-.345s.112-.249.17-.372.114-.251.172-.376.118-.258.178-.387.119-.261.18-.391.121-.267.183-.4.124-.272.188-.407.126-.275.189-.412.129-.28.194-.42.131-.284.2-.426.134-.289.2-.434.137-.293.2-.441.138-.3.207-.446.141-.3.21-.453.144-.307.215-.461.146-.31.218-.467.148-.315.221-.473.15-.319.224-.479.154-.324.228-.488.156-.327.231-.493.158-.332.235-.5.16-.335.237-.5.163-.339.241-.511.166-.345.245-.52.168-.348.248-.525.17-.352.251-.531.172-.356.254-.537.175-.361.258-.545.177-.364.26-.549.18-.369.265-.557.182-.372.267-.562.185-.376.271-.568.187-.38.274-.575.183-.367.267-.556.178-.377.269-.564.194-.407.293-.609.2-.412.3-.617.2-.415.3-.622.2-.419.3-.627.2-.422.305-.633.206-.426.309-.639.208-.43.312-.645.21-.434.315-.65.213-.438.319-.657.215-.44.321-.662.217-.443.325-.666.219-.448.327-.674.221-.45.33-.677.224-.454.334-.683.226-.458.337-.689.228-.462.34-.695.23-.465.342-.7.233-.468.346-.7.235-.472.349-.711.237-.475.351-.715.24-.479.356-.722.241-.481.357-.724.244-.485.361-.732.246-.488.363-.735.249-.492.367-.742.251-.494.37-.746.252-.5.372-.751.255-.5.376-.756.257-.5.378-.761.26-.507.382-.766.261-.51.384-.77.264-.513.387-.775.267-.518.391-.782.268-.519.393-.784.27-.522.4-.79.27-.518.4-.784c.1-.185.186-.375.281-.561.009-.019.019-.037.028-.055.143-.266.272-.542.409-.813s.274-.545.412-.817.277-.548.415-.823.279-.551.418-.827.281-.553.421-.831.283-.556.424-.836.285-.559.426-.84.287-.561.428-.843.29-.565.432-.85.292-.567.435-.852.293-.571.437-.858.3-.573.44-.861.3-.576.443-.866.3-.578.445-.87.3-.581.448-.874.3-.583.451-.878.306-.585.454-.882.307-.588.456-.886.309-.59.458-.889.312-.593.462-.9.314-.595.464-.9.316-.6.467-.9.318-.6.469-.9.32-.6.472-.91.322-.605.475-.913.324-.607.478-.917.325-.609.479-.92.328-.612.483-.925.33-.613.485-.927.331-.616.487-.931.334-.619.491-.936.336-.62.493-.938.337-.623.5-.942.34-.625.5-.946.341-.627.5-.949l.069-.131c.11-.2.209-.4.316-.6.038-.076.08-.148.118-.223l.073-.139c.177-.315.34-.641.509-.962s.342-.644.511-.967.344-.645.514-.969.346-.647.517-.972.348-.65.519-.977.35-.651.521-.978.352-.653.524-.982.354-.656.527-.987.355-.655.528-.986.357-.659.531-.992.359-.66.533-.993.361-.663.536-1,.363-.664.539-1,.364-.666.541-1,.366-.667.542-1,.369-.67.546-1.01.369-.67.547-1.01.372-.673.55-1.014.374-.675.553-1.017.375-.676.554-1.02.378-.677.558-1.022.378-.679.559-1.024.38-.681.561-1.027.383-.683.565-1.031.384-.684.566-1.032.385-.685.568-1.035.387-.686.57-1.037.39-.688.574-1.04.391-.689.575-1.042.393-.691.578-1.045.394-.691.579-1.046.4-.694.582-1.049.4-.694.584-1.05c.068-.12.135-.241.2-.363.2-.346.394-.7.589-1.058s.4-.705.59-1.06.4-.707.593-1.063.4-.708.595-1.065.4-.709.6-1.066.4-.711.6-1.069.405-.712.6-1.071.406-.712.6-1.072.408-.714.606-1.075.41-.715.608-1.076.411-.716.61-1.078.413-.717.613-1.08.414-.718.614-1.082.416-.719.616-1.084.417-.718.618-1.083.419-.721.621-1.088.42-.721.622-1.088.422-.722.624-1.09.424-.723.627-1.092.425-.723.628-1.091.427-.726.63-1.1.429-.727.633-1.1.43-.726.634-1.1.432-.728.637-1.1.433-.727.638-1.1.435-.729.64-1.1.437-.73.643-1.1.438-.729.644-1.1.439-.731.646-1.105.441-.731.648-1.1.443-.733.651-1.109c.1-.165.2-.331.292-.5.227-.365.439-.74.654-1.113s.439-.739.655-1.112.44-.74.656-1.113.443-.741.659-1.115.444-.741.661-1.115.445-.742.662-1.117.447-.742.665-1.117.448-.742.666-1.118.449-.742.667-1.119.452-.742.67-1.119.453-.743.672-1.121.454-.743.673-1.12.456-.744.675-1.123.457-.743.676-1.121.459-.744.679-1.123.46-.744.681-1.123.461-.745.682-1.124.462-.745.683-1.124.464-.745.686-1.125.465-.744.687-1.124.467-.746.689-1.127.468-.745.691-1.126.469-.745.692-1.126.471-.745.694-1.126.472-.746.7-1.128.474-.744.7-1.126.475-.745.7-1.127.477-.746.7-1.128q.177-.281.35-.565c.244-.369.472-.75.7-1.129s.473-.75.7-1.128.475-.751.707-1.13.474-.749.706-1.128.477-.749.709-1.128.478-.75.711-1.129.479-.75.712-1.129.48-.748.713-1.128.481-.748.715-1.127.483-.749.717-1.129.484-.748.718-1.127.486-.748.72-1.128.486-.746.72-1.126.489-.747.724-1.127.489-.746.724-1.126.49-.745.725-1.126.492-.745.728-1.125.492-.744.728-1.124.494-.744.73-1.124.5-.744.732-1.124.5-.742.732-1.122.5-.743.735-1.123.5-.741.736-1.121.5-.741.737-1.121.5-.741.739-1.121c.129-.191.257-.384.382-.578.1-.14.187-.286.283-.427.024-.038.051-.075.075-.114q.193-.287.382-.578c.255-.366.5-.743.74-1.118s.5-.742.742-1.117.5-.742.744-1.118.5-.739.744-1.114.5-.74.746-1.116.5-.738.747-1.112.5-.738.749-1.113.5-.736.749-1.111.506-.735.751-1.109.508-.736.753-1.11.508-.733.753-1.107.51-.733.756-1.107.51-.732.756-1.105.511-.73.757-1.1.513-.73.759-1.1.514-.729.76-1.1.515-.727.761-1.1.516-.726.762-1.1.517-.726.764-1.1.518-.723.765-1.1.519-.723.766-1.094.52-.721.767-1.091c.131-.184.262-.369.39-.555.264-.356.514-.723.766-1.088s.515-.723.768-1.087.516-.722.769-1.087.517-.719.77-1.083.518-.718.771-1.082.519-.717.772-1.08.52-.716.774-1.079.521-.714.774-1.076.522-.712.775-1.074.523-.711.777-1.073.523-.709.777-1.07.526-.708.78-1.07.525-.7.779-1.065.527-.7.781-1.064.527-.7.781-1.062.529-.7.783-1.06.53-.7.784-1.058.531-.7.785-1.056.531-.7.785-1.053.533-.693.787-1.05c.127-.167.254-.335.378-.5.041-.051.077-.1.118-.155.1-.131.2-.257.291-.39q.19-.249.377-.5c.27-.341.527-.693.787-1.044s.526-.69.785-1.039.53-.691.789-1.04.53-.688.789-1.036.53-.685.789-1.033.532-.684.791-1.031.532-.681.791-1.028.534-.68.793-1.026.534-.677.793-1.022.535-.676.794-1.02.536-.674.8-1.018.537-.671.8-1.014.538-.67.8-1.012.538-.667.8-1.01.538-.663.8-1,.541-.663.8-1,.54-.66.8-1,.542-.658.8-1c.118-.144.234-.289.35-.435.273-.324.534-.659.8-.991s.535-.655.8-.986.536-.654.8-.985.537-.651.8-.981.538-.648.8-.977.539-.646.8-.975.539-.644.8-.971.54-.641.8-.968.54-.638.8-.964.542-.636.805-.961.542-.633.805-.957.543-.631.805-.954.544-.628.807-.951.544-.625.807-.947.546-.623.808-.944.546-.619.808-.939c.1-.12.209-.242.312-.363.276-.3.538-.619.805-.932s.539-.616.805-.928.54-.614.806-.925.541-.61.806-.92.542-.608.808-.917.542-.6.808-.913.542-.6.808-.909.543-.6.808-.9.545-.6.81-.9.544-.593.809-.9.546-.591.811-.894.546-.587.81-.888.547-.584.811-.885.548-.581.812-.881l.266-.288c.276-.284.539-.58.807-.872s.541-.577.808-.868.541-.574.809-.864.541-.57.808-.859.542-.566.809-.854.543-.564.81-.851.544-.56.81-.846.544-.556.81-.841.545-.553.81-.836.546-.551.812-.833.546-.546.81-.828.548-.543.812-.823.549-.54.813-.819l.21-.212c.276-.263.54-.538.808-.809s.54-.535.807-.8.54-.531.808-.8.54-.526.807-.794.542-.523.809-.79.542-.519.808-.784.543-.516.808-.78.544-.512.809-.775.544-.508.809-.769.545-.5.81-.766.545-.5.809-.759l.155-.145c.274-.244.536-.5.8-.749s.537-.5.8-.745.538-.491.8-.739.539-.487.805-.734.539-.483.805-.729.539-.478.8-.722.54-.475.805-.718.54-.471.805-.713.541-.466.805-.707.541-.461.8-.7l.1-.082c.22-.182.431-.374.648-.56.02-.019.041-.036.061-.054l.089-.076c.272-.223.534-.457.8-.687s.533-.451.8-.678.535-.448.8-.675.534-.442.8-.668.536-.438.8-.663.536-.433.8-.656.536-.429.8-.651.537-.424.8-.645.538-.42.8-.639l.026-.021c.269-.205.529-.419.793-.629s.529-.413.791-.621.531-.41.794-.618.53-.4.792-.61.531-.4.793-.6.53-.394.79-.6.533-.39.793-.593.521-.375.774-.571c.26-.181.511-.375.766-.562s.523-.377.784-.567.525-.373.785-.563.526-.368.785-.555.525-.362.783-.548.526-.358.785-.543.523-.351.779-.533c.073-.047.142-.1.215-.146.158-.108.321-.211.478-.322.259-.166.511-.341.766-.512s.519-.341.777-.513.518-.333.774-.5.52-.33.777-.5.519-.323.775-.491.511-.312.762-.476c.208-.122.41-.254.616-.381.259-.151.512-.311.768-.467s.512-.305.767-.459.512-.3.766-.453.513-.294.767-.446.512-.288.764-.438c.192-.109.386-.212.576-.323.242-.128.477-.267.716-.4.255-.134.5-.275.757-.413s.506-.27.758-.407.5-.262.754-.4.508-.257.757-.392c.161-.082.324-.16.483-.245.244-.116.482-.242.724-.362s.5-.243.747-.366.5-.236.748-.358.5-.23.745-.351c.228-.1.46-.2.685-.311.15-.065.3-.137.445-.2.248-.105.492-.216.738-.325s.492-.209.737-.317.492-.2.736-.309c.226-.094.457-.18.682-.277.123-.047.244-.1.366-.148.245-.091.486-.188.729-.283s.486-.182.728-.276.485-.174.725-.267c.105-.038.212-.072.317-.111.22-.072.435-.155.654-.23.24-.077.478-.159.717-.24s.479-.153.717-.233.464-.14.693-.216l.2-.062c.238-.065.473-.137.709-.206s.473-.13.709-.2.472-.122.706-.189l.136-.034c.229-.052.454-.112.682-.168s.466-.107.7-.162.466-.1.7-.154l.078-.016c.224-.041.445-.089.668-.132s.461-.083.691-.127.455-.075.681-.117h0c.229-.03.455-.067.683-.1s.455-.059.681-.091c.2-.026.41-.043.612-.071h0c.226-.019.45-.041.674-.063s.422-.031.632-.05.394-.025.591-.035c.223-.008.444-.016.666-.027.178,0,.359,0,.538-.009.079,0,.157.007.236.007.127,0,.251-.007.377-.007.158,0,.313.013.471.014l.081,0c.188.011.377.015.566.023.216.013.432.029.649.039s.431.037.648.048c.447.03.894.057,1.344.075q.33.018.66.031c.2.012.39.029.587.038s.394.031.59.048q.333.035.667.065c.2.022.4.05.6.069s.432.058.648.087.449.068.675.1c.209.033.416.072.626.1l.015,0c.227.045.456.084.684.126s.456.091.685.133.431.094.649.135l.06.013c.229.056.461.106.691.158s.462.113.694.167.461.119.693.174l.1.026c.227.066.458.124.687.187s.468.134.7.2.467.141.7.207c.213.064.423.136.638.2.072.024.145.045.217.068.236.081.473.155.71.232s.474.162.712.24.473.168.713.247c.089.031.177.066.267.1.219.085.444.16.665.242.239.094.48.182.721.272s.479.188.72.279.479.194.721.286c.115.047.228.1.344.142.22.1.446.182.667.275.241.107.486.208.729.311s.486.214.73.318.486.221.731.326.469.22.708.323c.125.06.254.116.38.176.243.12.492.233.737.349s.493.239.74.357.492.245.74.363.491.251.739.371.461.242.695.356c.157.085.318.162.475.245.247.136.5.263.749.4s.5.269.748.4.5.274.749.408.5.28.75.415.488.281.736.414c.169.1.343.194.514.292.249.151.5.293.756.439s.5.3.758.445.5.3.758.451.5.308.758.458.5.314.758.464.478.305.723.45c.2.132.408.254.612.383.252.167.51.325.765.487s.51.331.767.494.509.335.766.5.509.34.767.506.509.345.767.512.508.35.767.518c.222.151.439.308.664.455.248.179.5.348.756.522s.515.361.774.54.515.367.775.547.514.371.774.553.514.376.775.559.514.38.775.564.514.386.776.571.491.375.743.554c.248.194.5.377.756.565.257.2.521.4.783.594s.519.4.781.6.519.405.782.6.518.409.782.608.518.414.782.615.518.418.782.62.517.423.783.626.516.427.782.632l.007,0c.258.22.525.428.788.642s.525.432.789.647.524.436.789.652.522.44.787.657.523.445.788.662.522.449.789.668.521.454.788.674.521.457.788.678.521.461.789.684l.065.057c.187.171.383.333.574.5.05.043.1.088.148.13l.071.062c.26.238.529.466.794.7s.528.47.793.7.528.474.794.708.526.478.793.713.525.482.793.718.525.486.793.724.525.489.793.728.524.493.793.733.523.5.792.737.523.5.793.742l.127.12c.259.257.53.5.8.751s.531.506.8.757.529.509.795.76.53.513.8.766.528.516.8.77.528.52.8.775.528.523.8.78.526.526.8.783.526.53.8.788.525.533.8.792.524.537.8.8.524.541.795.8l.183.186c.069.073.143.142.212.215.135.134.263.273.4.405l.187.189c.261.277.532.544.8.815s.53.547.8.818.53.55.8.822.529.554.8.827.528.557.8.831.528.56.8.834.527.564.8.84.526.566.8.842.526.57.8.848.525.572.8.85.524.575.795.854.524.58.8.861.522.58.793.861c.079.086.157.173.237.258.259.3.53.581.8.871s.53.584.8.874.529.587.8.878.528.59.8.881.528.593.8.886.526.595.8.888.526.6.8.894.524.6.793.9.525.6.794.9.524.607.793.9.524.61.794.907.522.612.792.911.521.613.791.912.521.617.792.917.52.62.79.92c.094.11.187.22.282.329.257.315.527.619.793.927s.527.621.793.93.526.624.792.933.525.627.792.937.524.629.791.939.524.632.791.944.522.633.788.945.522.636.79.949.521.639.788.952.52.641.788.955.519.643.787.958.518.645.786.961.518.648.786.964.517.65.785.967.516.651.784.969.515.654.783.972.515.657.783.975q.158.2.316.4c.254.333.522.655.786.981s.52.657.784.983.519.659.783.986.519.662.783.989.517.663.781.99.517.666.781,1,.516.667.78,1,.515.669.779,1,.514.67.778,1,.513.673.777,1,.513.676.777,1.007.512.676.776,1.008.511.678.775,1.011.51.679.774,1.012.509.682.773,1.015.508.684.773,1.018.506.685.771,1.019.506.688.771,1.022.5.689.768,1.023q.169.23.341.456c.038.052.079.1.116.154.106.138.2.281.312.417.113.153.228.305.343.457.249.349.511.688.77,1.03s.509.69.768,1.031.509.692.768,1.034.509.694.768,1.037.506.694.765,1.037.506.7.765,1.04.5.7.764,1.041.5.7.763,1.044.5.7.762,1.045.5.7.761,1.047.5.7.759,1.048.5.7.759,1.05.5.706.757,1.052.5.708.758,1.055.5.708.754,1.054.5.71.755,1.056.5.712.753,1.059.494.712.752,1.06.493.714.752,1.061.491.715.749,1.062.491.717.749,1.065q.174.251.351.5c.241.362.5.713.749,1.066s.5.714.748,1.068.5.715.747,1.069.494.716.746,1.071.492.716.743,1.07.492.719.744,1.074.49.718.742,1.072.489.721.741,1.076.488.721.739,1.076.487.722.739,1.077.486.723.737,1.078.484.723.735,1.078.484.725.735,1.081.483.725.733,1.08.482.726.732,1.082.481.727.731,1.083.48.728.731,1.085.477.727.726,1.082.478.73.728,1.087.476.729.725,1.084.476.731.725,1.088.474.73.723,1.086.472.732.721,1.088.472.733.721,1.089q.168.258.339.513c.231.37.477.728.72,1.089s.476.729.719,1.091.474.728.716,1.089.473.729.715,1.09.473.73.714,1.091.471.73.713,1.091.469.73.71,1.091.469.732.71,1.092.467.731.708,1.092.466.732.707,1.093.465.732.706,1.093.463.732.7,1.091.463.734.7,1.095.461.733.7,1.093.459.732.7,1.092.459.734.7,1.093.458.734.7,1.094.456.734.7,1.094.455.734.693,1.093.454.734.692,1.094.453.734.69,1.093.452.734.689,1.093.45.734.687,1.092.449.735.686,1.094.447.735.684,1.092.446.735.682,1.093c.1.165.2.328.306.491.077.13.161.254.239.383.047.072.089.147.136.218q.152.246.306.49c.217.37.45.728.679,1.09s.448.729.677,1.09.447.728.676,1.089.446.729.674,1.09.444.728.672,1.089.444.728.671,1.088.442.727.669,1.087.44.728.667,1.087.439.728.666,1.087.438.727.664,1.086.436.726.661,1.084.436.727.661,1.085.434.727.659,1.084.433.726.657,1.083.431.726.656,1.082.429.726.653,1.082.429.726.653,1.082.426.724.649,1.079.426.724.649,1.08.424.723.646,1.077.423.723.645,1.077.422.723.644,1.077.42.722.641,1.075.419.722.64,1.075.417.721.637,1.073.416.72.636,1.071.414.72.634,1.071.413.72.632,1.07.412.718.63,1.068q.121.207.244.413c.2.361.416.712.628,1.065s.413.709.624,1.061.413.71.624,1.063.411.707.621,1.059.41.708.62,1.059.408.707.617,1.057.407.706.615,1.055.406.706.615,1.056.4.7.611,1.052.4.7.61,1.051.4.7.608,1.05.4.7.605,1.047.4.7.6,1.047.4.7.6,1.045.395.7.6,1.044.393.7.6,1.04.392.7.6,1.04.391.7.6,1.038.389.695.592,1.036.387.694.59,1.035.385.692.587,1.031.385.692.587,1.031.382.69.583,1.028.381.689.581,1.026.38.689.581,1.026.378.686.577,1.022.377.685.576,1.02.374.684.573,1.018.373.683.571,1.016.372.682.57,1.015.37.68.567,1.011.369.68.565,1.011c.049.088.1.176.148.263.178.34.372.67.56,1s.371.668.559,1,.368.666.555,1,.368.665.554,1,.366.662.551.991.365.663.55.991.363.661.548.989.36.658.545.985.358.657.542.982.357.656.541.981.355.654.538.977.354.653.537.976.352.65.533.972.35.649.532.969.348.648.529.968.347.645.527.964.345.643.524.961.344.643.523.959.342.64.52.955.34.639.518.953.339.637.516.951.336.634.512.946.336.634.511.945.334.631.509.941.332.629.506.938.33.627.5.935.328.625.5.932.327.624.5.929.325.621.5.925.323.62.5.923.321.618.491.919.32.616.49.917.318.613.487.913.316.611.485.909l.018.033c.065.131.138.256.2.385.089.162.17.329.26.489l.014.025c.151.3.317.6.476.9s.315.595.473.891.314.594.472.89.312.591.469.885.309.589.465.882.309.586.464.878.306.584.461.874.3.582.459.872.3.579.456.867.3.577.454.864.3.575.451.86.3.572.448.856.295.57.446.852.293.568.443.849.291.565.441.845.289.562.438.84.287.561.436.838.285.557.432.833.284.555.431.829.281.552.427.825.28.55.425.821.278.548.423.817.276.545.42.814.274.541.417.808.272.54.415.805.27.537.412.8.268.534.409.8.266.531.406.792.264.529.4.788.262.526.4.784.261.523.4.78.258.52.4.774.256.518.393.771.254.515.39.766.253.512.388.762.249.507.383.755c.029.058.06.115.088.173.047.09.091.182.138.272.118.249.249.489.372.735s.249.488.372.734.246.486.369.73.244.482.365.724.242.48.363.72.241.477.361.716.238.474.357.711.236.471.355.706.234.468.351.7.232.464.349.7.23.462.346.692.228.458.343.687.226.454.34.68.224.452.338.677.221.449.334.672.22.445.332.667.217.441.328.66.215.439.326.657.213.436.323.652.211.432.319.646.209.428.317.639.207.427.314.637.2.422.311.63.2.419.308.626.2.415.3.619.2.412.3.614.2.409.3.61.194.4.3.6.192.4.293.6.19.4.29.592.188.395.287.588.186.39.284.582.184.387.281.576.181.383.278.57.179.38.275.566.177.375.271.559.173.368.266.547c.032.069.067.136.1.2.021.041.039.082.059.123.08.176.169.346.251.52s.169.346.251.52.165.341.246.513.164.337.244.507.161.333.24.5.159.331.238.5.156.325.233.488.155.323.232.485.151.317.227.476.15.314.224.471.148.31.222.465.145.306.218.459.142.3.214.453.141.3.212.447.138.293.208.439.136.29.205.434.134.286.2.428.132.281.2.421.13.277.2.416.127.272.192.407.125.269.189.4.122.264.185.395.12.261.183.39.117.256.178.382.116.252.176.376.113.247.172.369.111.244.169.364.108.238.165.356.107.234.163.35.1.23.159.343.1.225.154.334.1.223.154.332c.041.085.076.175.118.26l0,.008c.035.081.075.158.11.239l.017.043c.033.076.07.148.1.224.008.017.013.034.021.051.03.071.065.138.1.208l.023.06c.029.066.062.129.091.194l.026.066c.026.061.057.119.084.18.01.024.018.048.029.072.024.057.052.111.077.167.011.026.02.053.032.079.022.052.049.1.072.153.012.028.021.056.033.084.021.048.045.092.066.14.013.03.023.06.036.09s.041.085.06.128.025.063.038.095.037.075.054.114.026.067.041.1.033.068.048.1.028.07.043.105l.016.035c.314.837.648,1.67,1.028,2.493,9.2,19.911,34.524,27.8,56.571,17.614S769.01,474.494,759.814,454.583Z"
        transform="translate(-36.842 -36.428)"/></svg>
